<?xml version="1.0" encoding="utf-8"?>
<!-- Generator: Adobe Illustrator 27.5.0, SVG Export Plug-In . SVG Version: 6.00 Build 0)  -->
<svg version="1.1" xmlns="http://www.w3.org/2000/svg" xmlns:xlink="http://www.w3.org/1999/xlink" x="0px" y="0px"
	 viewBox="0 0 680 500" style="enable-background:new 0 0 680 500;" xml:space="preserve">
<g id="BACKGROUND">
	<g>
		<g>
			<g>
				<rect style="fill:#FFFFFF;" width="680" height="500"/>
			</g>
		</g>
		<path style="fill:#B0DBFF;" d="M86.297,171.408L302.871,51.919c21.935-12.102,48.916-10.286,69.031,4.647l228.987,169.996
			c44.705,33.188,28.606,103.688-26.073,114.182L262.52,400.68c-18.767,3.602-38.161-1.375-52.874-13.569L76.381,276.668
			C41.661,247.894,46.814,193.192,86.297,171.408z"/>
		<g>
			<g>
				<rect y="414.783" style="fill:#D9E6FF;" width="680" height="85.217"/>
			</g>
		</g>
	</g>
</g>
<g id="OBJECTS">
	<g>
		<g>
			<path style="fill:#EA8B2D;" d="M477.668,384.774h130.148c6.873,0,12.444-5.572,12.444-12.444v-59.111
				c0-6.873-5.572-12.445-12.444-12.445H477.668c-6.873,0-12.444,5.572-12.444,12.445v59.111
				C465.223,379.202,470.795,384.774,477.668,384.774z"/>
			<g>
				<polyline style="fill:none;stroke:#3E3D5E;stroke-width:4;stroke-miterlimit:10;" points="281.085,173.802 281.085,103.025 
					301.307,103.025 				"/>
				<path style="fill:#4C4C72;" d="M280.807,184.197h-9.167c-4.664,0-8.444-3.781-8.444-8.444v-39.679
					c0-4.664,3.781-8.444,8.444-8.444h9.167c4.664,0,8.444,3.781,8.444,8.444v39.679
					C289.251,180.416,285.471,184.197,280.807,184.197z"/>
				<path style="fill:#606093;" d="M277.113,184.197h-9.167c-4.664,0-8.444-3.781-8.444-8.444v-39.679
					c0-4.664,3.781-8.444,8.444-8.444h9.167c4.664,0,8.444,3.781,8.444,8.444v39.679
					C285.557,180.416,281.776,184.197,277.113,184.197z"/>
			</g>
			<g>
				<path style="fill:#E57F23;" d="M562.939,241.287l-52.21-11.552V92.33h-73.835v121.068l-19.892-4.401v175.777h180.444v-100.51
					C597.445,263.618,583.096,245.747,562.939,241.287z"/>
				<path style="fill:#D36F1C;" d="M562.939,241.287l-52.21-11.552l-38.143,155.039h124.86v-100.51
					C597.445,263.618,583.096,245.747,562.939,241.287z"/>
				<path style="fill:#3E3D5E;" d="M593.611,278.996c-2.147-16.811-14.468-30.539-31.428-34.291l-48.872-10.814l-11.097,45.105
					H593.611z"/>
				<rect x="296.606" y="92.33" style="fill:#FFA543;" width="140.287" height="224.777"/>
				<rect x="296.606" y="92.33" style="fill:#EA8B2D;" width="140.287" height="9.722"/>
				<rect x="289.446" y="78.33" style="fill:#FFA543;" width="228.666" height="17.63"/>
				<rect x="438.779" y="78.33" style="fill:#EA8B2D;" width="79.333" height="17.63"/>
				<g>
					<rect x="305.001" y="108.663" style="fill:#3E3D5E;" width="122.37" height="120.814"/>
					
						<rect x="309.279" y="111.385" transform="matrix(-1.836970e-16 1 -1 -1.836970e-16 535.257 -197.1159)" style="fill:#B0DBFF;" width="113.815" height="115.37"/>
					<path style="fill:#85BEE5;" d="M423.872,225.978v-73.5h-16.463c-10.453,0-18.926,8.473-18.926,18.926v54.574H423.872z"/>
					<path style="fill:#85BEE5;" d="M423.872,225.978v-32.926h-85.296c-8.018,0-14.519,6.5-14.519,14.519v18.407H423.872z"/>
					<g style="opacity:0.5;">
						<polygon style="fill:#FFFFFF;" points="308.501,141.719 308.501,225.978 311.742,225.978 423.872,113.848 423.872,112.163 
							338.057,112.163 						"/>
						<path style="fill:#FFFFFF;" d="M321.659,225.978h21.08c20.068-20.982,58.154-57.486,81.133-79.32v-22.893L321.659,225.978z"/>
						<polygon style="fill:#FFFFFF;" points="423.872,186.182 384.075,225.978 387.186,225.978 423.872,189.293 						"/>
					</g>
				</g>
			</g>
			<rect x="296.606" y="237.774" style="fill:#EA8B2D;" width="140.287" height="79.333"/>
			<g>
				<g>
					<path style="fill:#4C4C72;" d="M382.779,250.996H268.446c-50.687,0-91.778,41.09-91.778,91.777
						c0,50.687,41.09,91.778,91.778,91.778h114.333C382.779,434.551,385.112,250.996,382.779,250.996z"/>
					<g>
						
							<ellipse transform="matrix(0.7071 -0.7071 0.7071 0.7071 -130.2644 371.0618)" style="fill:#3E3D5E;" cx="382.779" cy="342.774" rx="91.778" ry="91.778"/>
						<circle style="fill:#F4C85B;" cx="382.779" cy="342.774" r="77"/>
						<path style="fill:#E5B241;" d="M382.779,265.774c-2.449,0-4.869,0.12-7.259,0.343c39.121,3.659,69.741,36.58,69.741,76.657
							c0,40.077-30.62,72.998-69.741,76.657c2.39,0.224,4.811,0.343,7.259,0.343c42.526,0,77-34.474,77-77
							S425.305,265.774,382.779,265.774z"/>
					</g>
				</g>
				<rect x="168.631" y="300.774" style="fill:#FFA543;" width="161.777" height="84"/>
				
					<rect x="330.409" y="300.774" transform="matrix(-1 -1.224647e-16 1.224647e-16 -1 815.8542 685.5478)" style="fill:#EA8B2D;" width="155.037" height="84"/>
			</g>
			<g>
				<path style="fill:#4C4C72;" d="M598.994,373.367c0-25.123-15.147-46.699-36.803-56.12c0-3.275,0-5.121,0-5.064H537.81
					c-33.791,0-61.184,27.393-61.184,61.184s27.393,61.184,61.184,61.184h24.382c0,0,0-1.841,0-5.064
					C583.847,420.066,598.994,398.49,598.994,373.367z"/>
				<g>
					<circle style="fill:#3E3D5E;" cx="562.192" cy="373.367" r="61.184"/>
					<circle style="fill:#F4C85B;" cx="562.192" cy="373.367" r="28.062"/>
					<path style="fill:#E5B241;" d="M562.192,345.305c-0.892,0-1.775,0.044-2.646,0.125c14.257,1.333,25.417,13.331,25.417,27.937
						c0,14.606-11.159,26.604-25.417,27.937c0.871,0.082,1.753,0.125,2.646,0.125c15.498,0,28.062-12.564,28.062-28.062
						C590.254,357.869,577.69,345.305,562.192,345.305z"/>
				</g>
			</g>
			<g>
				<path style="fill:#3E3D5E;" d="M445.001,116.048v132.349c0,2.802,1.763,5.301,4.404,6.239l35.345,12.567
					c3.7,1.315,7.725-0.859,8.653-4.674l8.577-35.261c0.125-0.512,0.188-1.038,0.188-1.565V115.949c0-3.663-2.974-6.63-6.637-6.622
					l-43.922,0.1C447.957,109.434,445.001,112.397,445.001,116.048z"/>
				<path style="fill:#B0DBFF;" d="M486.97,264.089c-0.354,0-0.706-0.061-1.048-0.183l-35.345-12.568
					c-1.242-0.441-2.076-1.623-2.076-2.942V116.048c0-1.718,1.397-3.118,3.115-3.122l43.922-0.1c1.729,0,3.129,1.4,3.129,3.122
					v109.754c0,0.247-0.03,0.496-0.089,0.737l-8.577,35.263C489.66,263.107,488.414,264.089,486.97,264.089L486.97,264.089z"/>
				<path style="fill:#85BEE5;" d="M469.631,152.478h-21.129v95.919c0,1.318,0.834,2.5,2.076,2.942l35.345,12.568
					c0.099,0.035,0.201,0.055,0.302,0.08c1.484-2.701,2.332-5.801,2.332-9.1v-83.481
					C488.557,160.951,480.083,152.478,469.631,152.478z"/>
				<path style="opacity:0.5;fill:#FFFFFF;" d="M498.668,150.663l-50.166,50.166v47.567c0,1.318,0.834,2.5,2.076,2.942l2.376,0.845
					l45.715-45.715V150.663z"/>
				<path style="fill:#3E3D5E;" d="M446.945,194.996h52.889v10.306H447.14C447.14,205.302,446.459,194.51,446.945,194.996z"/>
			</g>
			<path style="fill:#E57F23;" d="M496.839,286.191h100.606v-1.927c0-0.745-0.024-1.484-0.061-2.221H497.86L496.839,286.191z"/>
			<g>
				<polyline style="fill:none;stroke:#3E3D5E;stroke-width:4;stroke-linecap:round;stroke-miterlimit:10;" points="
					469.501,173.802 469.501,103.025 449.279,103.025 				"/>
				<path style="fill:#4C4C72;" d="M469.779,184.197h9.167c4.664,0,8.444-3.781,8.444-8.444v-39.679
					c0-4.664-3.781-8.444-8.444-8.444h-9.167c-4.664,0-8.444,3.781-8.444,8.444v39.679
					C461.334,180.416,465.115,184.197,469.779,184.197z"/>
				<path style="fill:#606093;" d="M465.955,184.197h9.167c4.664,0,8.444-3.781,8.444-8.444v-39.679
					c0-4.664-3.781-8.444-8.444-8.444h-9.167c-4.664,0-8.445,3.781-8.445,8.444v39.679
					C457.51,180.416,461.291,184.197,465.955,184.197z"/>
			</g>
		</g>
		<g>
			<g>
				<path style="fill:#FFB692;" d="M213.841,226.751l-37.526,23.771c-3.918,2.59-4.994,7.866-2.404,11.783l0,0
					c2.59,3.917,7.866,4.994,11.783,2.404l37.526-23.771L213.841,226.751z"/>
				<path style="fill:#FFB692;" d="M157.015,218.182l16.22,41.354c1.8,4.338,6.775,6.395,11.113,4.595h0
					c4.337-1.8,6.395-6.775,4.595-11.113l-16.22-41.354L157.015,218.182z"/>
				<polygon style="fill:#D88D87;" points="159.738,225.123 172.032,256.467 182.7,237.099 178.321,225.936 				"/>
				<g>
					<path style="fill:#FFB692;" d="M213.891,236.354l1.154,1.584c3.231,4.438,9.449,5.415,13.886,2.184l0,0
						c4.438-3.231,5.415-9.449,2.184-13.886l-1.154-1.585c-3.231-4.438-9.448-5.415-13.886-2.184l0,0
						C211.637,225.7,210.659,231.917,213.891,236.354z"/>
				</g>
				<path style="fill:#E5B241;" d="M185.621,231.732l-8.106-21.565c-2.57-5.94-9.469-8.671-15.408-6.101l0,0
					c-5.94,2.57-8.671,9.468-6.101,15.408l8.106,21.565L185.621,231.732z"/>
				<g>
					<path style="fill:#F29D7E;" d="M213.496,221.238l13.031,3.502c0,0-0.407,5.538-7.167,3.502c0,0,0.244,5.131-4.724,5.131
						C209.669,233.373,209.75,224.577,213.496,221.238z"/>
					<path style="fill:#FFB692;" d="M225.324,221.387l9.082-0.83c0,0,5.086,3.321,4.671,13.078l-13.441,1.764L225.324,221.387z"/>
				</g>
			</g>
			<g>
				
					<rect x="135.633" y="316.007" transform="matrix(-0.1042 -0.9946 0.9946 -0.1042 -142.7188 525.7405)" style="fill:#3E3D5E;" width="59.558" height="22.275"/>
				<g>
					<path style="fill:#E5B241;" d="M157.705,447.162l28.059,0.648c3.052,0.071,5.607-2.369,5.677-5.421l0.041-1.767
						c0.183-7.925-6.151-14.559-14.076-14.742l-12.105-0.28c-7.925-0.183-14.559,6.151-14.742,14.076l0,0
						C150.466,443.701,153.681,447.069,157.705,447.162z"/>
					<path style="fill:#B73D66;" d="M153.416,449.245l35.77,0.256c1.034,0.007,1.886-0.832,1.893-1.866l0,0
						c0.007-1.034-0.833-1.886-1.866-1.893l-35.77-0.255c-1.034-0.007-1.886,0.832-1.893,1.866l0,0
						C151.542,448.385,152.382,449.238,153.416,449.245z"/>
				</g>
				<path style="fill:#3E3D5E;" d="M178.499,427.887l0.912-75.548l0,0c-12.301-0.149-22.393-2.642-22.542,9.659l-0.643,65.619
					L178.499,427.887z"/>
				<rect x="151.768" y="407.542" style="fill:#E5B241;" width="28.509" height="29.754"/>
				<path style="fill:#3E3D5E;" d="M140.974,312.084h16.556c10.016,0,18.211-8.195,18.211-18.211l0,0
					c0-6.705-5.486-12.191-12.191-12.191h-28.596c-6.705,0-12.191,5.486-12.191,12.191l0,0
					C122.763,303.889,130.958,312.084,140.974,312.084z"/>
				
					<rect x="110.687" y="316.007" transform="matrix(-0.1042 -0.9946 0.9946 -0.1042 -170.2645 500.9292)" style="fill:#3E3D5E;" width="59.558" height="22.275"/>
				<g>
					<path style="fill:#F4C85B;" d="M131.929,447.324l28.059,0.648c3.052,0.071,5.606-2.369,5.677-5.42l0.041-1.767
						c0.183-7.925-6.151-14.559-14.076-14.742l-12.105-0.28c-7.925-0.183-14.559,6.151-14.742,14.076l0,0
						C124.69,443.863,127.906,447.231,131.929,447.324z"/>
					<path style="fill:#F25F66;" d="M127.64,449.406l35.77,0.255c1.034,0.008,1.886-0.832,1.893-1.866l0,0
						c0.007-1.034-0.832-1.886-1.866-1.893l-35.77-0.255c-1.034-0.007-1.886,0.833-1.893,1.866l0,0
						C125.766,448.547,126.606,449.399,127.64,449.406z"/>
				</g>
				<path style="fill:#3E3D5E;" d="M153.553,427.887l0.912-75.548l0,0c-12.301-0.149-22.394-2.642-22.542,9.659l-0.643,65.619
					L153.553,427.887z"/>
				<rect x="125.889" y="408.095" style="fill:#F4C85B;" width="28.509" height="29.754"/>
			</g>
			<g>
				<g>
					<g>
						<path style="fill:#F4C85B;" d="M175.732,291.074h-54.957v-77.26c0-8.231,6.673-14.904,14.904-14.904h20.838
							c10.612,0,19.215,8.603,19.215,19.215V291.074z"/>
					</g>
					<path style="fill:#FFB692;" d="M134.552,201.588c-0.901,5.119,5.305,10.49,13.861,11.996
						c8.556,1.506,16.223-1.422,17.124-6.541c0.901-5.119-5.304-10.49-13.861-11.996
						C143.12,193.541,135.453,196.469,134.552,201.588z"/>
				</g>
				<path style="fill:#3E3D5E;" d="M173.764,292.953h-41.648v-62.223c0-3.927,3.184-7.111,7.111-7.111h29.786
					c3.927,0,7.111,3.184,7.111,7.111v59.862C176.126,291.896,175.068,292.953,173.764,292.953z"/>
				<path style="fill:none;stroke:#4C4C72;stroke-width:9;stroke-linecap:round;stroke-miterlimit:10;" d="M162.148,200.784
					c0,0,8.304,9.411,10.795,29.893"/>
				<g>
					<g>
						<path style="fill:#FFB692;" d="M160.273,199.284c0-28.089-5.485-13.491-12.25-13.491c-6.766,0-12.25-12.787-12.25,13.491
							c0,9.844,5.485,8.994,12.25,8.994C154.788,208.278,160.273,209.128,160.273,199.284z"/>
						<path style="fill:#D88D87;" d="M136.028,191.078c1.154-15.037,6.086-5.286,11.995-5.286c6.551,0,11.901-13.686,12.234,10.945
							C149.789,200.16,141.668,196.188,136.028,191.078z"/>
					</g>
					<g>
						<path style="fill:#FFB692;" d="M167.168,163.26c-1.421,3.851-0.499,7.802,2.06,8.825c2.559,1.023,5.786-1.269,7.207-5.12
							c1.422-3.851,0.499-7.802-2.06-8.825C171.816,157.116,168.589,159.409,167.168,163.26z"/>
						<path style="fill:#D88D87;" d="M169.9,164.208c-0.391-0.156-0.806-0.191-1.223-0.127c0.022-0.064,0.04-0.129,0.064-0.193
							c0.939-2.544,3.071-4.059,4.761-3.383c1.691,0.676,2.3,3.286,1.361,5.83c-0.722,1.956-2.149,3.299-3.538,3.51
							C172.164,167.364,171.548,164.867,169.9,164.208z"/>
						<path style="fill:#915E54;" d="M162.805,164.04c12.317,1.315,13.77-11.694,12.524-18.475h-13.078L162.805,164.04z"/>
					</g>
					<path style="fill:#FFB692;" d="M146.113,135.197h10.901c8.506,0,15.466,6.96,15.466,15.466v22.515
						c0,11.878-9.719,21.597-21.597,21.597h0c-11.878,0-21.597-9.719-21.597-21.597v-21.154
						C129.286,142.769,136.858,135.197,146.113,135.197z"/>
					<path style="fill:#D88D87;" d="M157.014,135.197h-10.901c-9.255,0-16.827,7.572-16.827,16.827v3.979
						c10.336-0.995,30.178-2.94,43.194-4.219v-1.121C172.48,142.156,165.52,135.197,157.014,135.197z"/>
					<path style="fill:#915E54;" d="M128.657,165.078c12.317,1.315,13.77-7.335,12.525-14.116h-13.078L128.657,165.078z"/>
					<g>
						<path style="fill:#D88D87;" d="M159.694,170.104c0,0-5.635,1.032-5.661,2.088c-0.025,1.057,2.717,1.56,3.472,1.107
							C158.26,172.846,159.694,170.104,159.694,170.104z"/>
						<g>
							<path style="fill:#34344F;" d="M161.533,163.527c-0.081,1.309,0.914,2.436,2.224,2.518s2.436-0.915,2.518-2.224
								c0.081-1.309-0.914-2.436-2.224-2.517C162.741,161.222,161.614,162.217,161.533,163.527z"/>
							<path style="fill:#34344F;" d="M144.487,163.439c-0.081,1.309,0.915,2.436,2.224,2.518c1.309,0.081,2.436-0.915,2.518-2.224
								c0.081-1.309-0.915-2.436-2.224-2.517C145.696,161.134,144.568,162.13,144.487,163.439z"/>
							<path style="fill:#D88D87;" d="M155.147,157.866c0.635,2.726,1.45,5.365,2.323,7.987c0.443,1.309,0.887,2.615,1.385,3.909
								l0.094,0.242c0.039,0.106-0.039-0.073,0.013-0.165c0.032-0.069,0.003-0.014,0.012-0.023c-0.026,0.061-0.137,0.193-0.24,0.303
								l-0.71,0.706c-0.489,0.483-0.996,0.966-1.463,1.518c0.694-0.211,1.332-0.516,1.954-0.867
								c0.304-0.187,0.615-0.366,0.906-0.609c0.149-0.128,0.292-0.236,0.463-0.462c0.048-0.086,0.082-0.099,0.133-0.251
								c0.06-0.177,0.016-0.445,0.007-0.418l-0.083-0.247c-0.446-1.32-0.947-2.626-1.449-3.931
								C157.476,162.953,156.401,160.367,155.147,157.866z"/>
						</g>
						<g>
							<path style="fill:#34344F;" d="M158.175,175.884c-2.634-0.764-6.288-2.015-9.655-3.827c-2.215-1.192-4.62,1.509-3.713,4.209
								c0.965,2.873,2.948,5.703,6.959,6.577c3.287,0.716,5.521,0.11,7.033-0.949C160.938,180.395,160.522,176.565,158.175,175.884z
								"/>
							<path style="fill:#FF9292;" d="M151.766,182.843c-4.011-0.874-5.993-3.704-6.959-6.577c-0.136-0.405-0.19-0.808-0.188-1.2
								c1.523-0.466,3.477-0.484,5.98,0.406c3.866,1.374,5.453,4.427,6.025,7.393c0.001,0.006,0.001,0.012,0.002,0.017
								C155.338,183.22,153.746,183.275,151.766,182.843z"/>
							<path style="fill:#FFABAB;" d="M154.127,179.778c-0.486,0.634-2.006,0.327-3.395-0.685c-1.388-1.012-2.12-2.346-1.633-2.98
								c0.486-0.634,2.006-0.327,3.394,0.685C153.882,177.81,154.613,179.144,154.127,179.778z"/>
							<path style="fill:#FFFFFF;" d="M158.175,175.884c-2.634-0.764-6.288-2.015-9.655-3.827c-1.36-0.732-2.789,0.006-3.481,1.309
								c1.842,2.12,4.825,4.025,8.445,5.168c2.322,0.733,4.608,1.058,6.669,1.019C160.365,177.994,159.654,176.313,158.175,175.884z
								"/>
						</g>
					</g>
					<g>
						<path style="fill:#FFB692;" d="M133.771,163.432c1.278,3.901,0.212,7.815-2.384,8.744c-2.595,0.928-5.735-1.482-7.014-5.382
							c-1.279-3.901-0.212-7.815,2.383-8.744C129.352,157.121,132.492,159.531,133.771,163.432z"/>
						<path style="fill:#D88D87;" d="M131.005,164.279c0.396-0.142,0.812-0.161,1.227-0.082c-0.019-0.065-0.035-0.13-0.057-0.195
							c-0.845-2.577-2.919-4.169-4.634-3.556c-1.715,0.613-2.419,3.199-1.575,5.776c0.649,1.981,2.026,3.375,3.406,3.638
							C128.627,167.349,129.334,164.877,131.005,164.279z"/>
					</g>
				</g>
				<path style="fill:none;stroke:#4C4C72;stroke-width:9;stroke-linecap:round;stroke-miterlimit:10;" d="M130.871,200.784
					c0,0,8.303,9.411,10.795,29.893"/>
				<path style="fill:#F4C85B;" d="M144.019,229.846c0,1.376-1.115,2.491-2.491,2.491c-1.376,0-2.491-1.115-2.491-2.491
					c0-1.376,1.115-2.491,2.491-2.491C142.903,227.355,144.019,228.47,144.019,229.846z"/>
				<path style="fill:#F4C85B;" d="M175.633,229.846c0,1.376-1.115,2.491-2.491,2.491c-1.376,0-2.491-1.115-2.491-2.491
					c0-1.376,1.115-2.491,2.491-2.491C174.517,227.355,175.633,228.47,175.633,229.846z"/>
				<path style="fill:#4C4C72;" d="M162.333,291.015h-14.485c-4.255,0-7.704-3.449-7.704-7.704v-20.805h29.893v20.805
					C170.036,287.566,166.587,291.015,162.333,291.015z"/>
			</g>
			<path style="fill:#F29D7E;" d="M167.984,239.126l1.828-4.638l1.195-2.48c0.66-1.37,2.306-1.945,3.675-1.285l9.795,4.721
				c0.035-0.013,0.012,0.08-0.054,0.247c-0.628,1.588-2.001,2.626-3.55,2.955c1.022,1.877,1.457,4.035,1.209,6.19
				c-0.738,2.481-3.522,3.712-5.854,2.588l-6.161-2.969C168.086,243.498,167.177,241.174,167.984,239.126z"/>
			<polygon style="fill:#FFFFFF;" points="176.817,206.181 225.255,228.185 226.085,211.578 239.405,234.638 230.929,304.578 
				169.898,282.85 			"/>
			<path style="fill:#ABC1DD;" d="M171.357,266.684c19.314-3.576,16.255-14.557,16.255-14.557l-14.78-1.784L171.357,266.684z"/>
			<g>
				<path style="fill:#F4C85B;" d="M174.509,145.412l-47.234,9.402l-1.297-6.515c-2.596-13.043,5.873-25.722,18.916-28.318h0
					c13.043-2.596,25.722,5.873,28.318,18.916L174.509,145.412z"/>
				<path style="fill:#FFD576;" d="M173.213,138.897c-2.596-13.043-15.275-21.512-28.318-18.916h0
					c-3.624,0.721-6.894,2.223-9.672,4.293c19.911-3.318,23.144,8.679,25.542,22.328c0.09,0.51,0.229,0.997,0.409,1.464
					l13.336-2.655L173.213,138.897z"/>
				<path style="fill:#E5B241;" d="M127.276,154.814c0,0,49.888-18.591,56.531-15.062
					C190.449,143.282,174.954,146.834,127.276,154.814z"/>
			</g>
			<g>
				<g>
					<path style="fill:#FFB692;" d="M170.449,238.97l-43.447,9.25c-4.573,1.068-7.416,5.64-6.348,10.214l0,0
						c1.067,4.573,5.64,7.415,10.213,6.348l43.448-9.251L170.449,238.97z"/>
					<g>
						<path style="fill:#FFB692;" d="M163.146,248.545l0.531,1.886c1.488,5.284,6.978,8.361,12.262,6.873l0,0
							c5.284-1.488,8.361-6.978,6.873-12.262l-0.531-1.887c-1.488-5.284-6.978-8.361-12.262-6.872l0,0
							C164.734,237.772,161.657,243.262,163.146,248.545z"/>
						<path style="fill:#FFB692;" d="M174.877,248.665L174.877,248.665c-0.051,1.424,1.072,2.63,2.496,2.681l10.566-0.085
							c1.424,0.051,2.63-1.072,2.681-2.495l0,0c0.051-1.423-1.072-2.63-2.495-2.681l-10.566,0.085
							C176.135,246.119,174.928,247.242,174.877,248.665z"/>
						<path style="fill:#FFB692;" d="M174.129,252.749L174.129,252.749c-0.142,1.417,0.902,2.693,2.319,2.835l10.55,0.589
							c1.417,0.142,2.693-0.902,2.835-2.319l0,0c0.142-1.417-0.902-2.693-2.319-2.835l-10.55-0.589
							C175.546,250.288,174.27,251.332,174.129,252.749z"/>
						<path style="fill:#FFB692;" d="M175.912,239.542L175.912,239.542c-0.051,1.423,1.072,2.63,2.495,2.681l10.566-0.085
							c1.424,0.051,2.63-1.072,2.681-2.495l0,0c0.051-1.424-1.072-2.63-2.495-2.681l-10.566,0.085
							C177.17,236.996,175.964,238.119,175.912,239.542z"/>
						<path style="fill:#FFB692;" d="M175.164,243.626L175.164,243.626c-0.142,1.417,0.902,2.693,2.319,2.835l10.55,0.589
							c1.417,0.142,2.693-0.902,2.835-2.319l0,0c0.142-1.418-0.902-2.693-2.319-2.835l-10.55-0.589
							C176.582,241.165,175.306,242.209,175.164,243.626z"/>
					</g>
				</g>
				<g>
					<path style="fill:#FFB692;" d="M113.715,213.921l6.84,43.891c0.814,4.625,5.223,7.715,9.848,6.902l0,0
						c4.625-0.814,7.715-5.223,6.901-9.848l-6.841-43.892L113.715,213.921z"/>
					<path style="fill:#D88D87;" d="M118.764,246.322c4.737-3.184,11.004-7.77,15.29-12.314l-0.785-5.035l-17.303-0.604
						L118.764,246.322z"/>
					<path style="fill:#E5B241;" d="M138.69,233.367l-3.223-22.812c-1.217-6.356-7.357-10.522-13.713-9.305v0
						c-6.356,1.217-10.522,7.356-9.305,13.713l3.223,22.812L138.69,233.367z"/>
				</g>
			</g>
			<polygon style="fill:#ABC1DD;" points="239.405,234.638 226.085,211.578 225.255,228.185 176.818,206.181 239.404,234.646 			"/>
		</g>
		<g>
			<path style="fill:none;stroke:#4C4C72;stroke-width:4;stroke-linecap:round;stroke-miterlimit:10;" d="M66.667,420.194v-13.832
				c0-3.601,2.919-6.519,6.519-6.519H94.33"/>
			<polygon style="fill:#FF5050;" points="56.624,428.123 56.624,438.809 58.354,438.809 58.354,449.267 113.184,449.267 
				113.184,428.123 			"/>
			<rect x="58.351" y="438.808" style="fill:#A83B5D;" width="54.833" height="1.602"/>
			<polygon style="fill:#FF7752;" points="143.49,449.267 113.007,449.267 113.007,428.123 128.161,407.948 143.49,428.123 			"/>
			<circle style="fill:#F4C85B;" cx="128.777" cy="420.524" r="4.89"/>
			<path style="fill:#A83B5D;" d="M71.776,408.184L56.8,428.123h56.207l15.153-20.175
				C127.944,407.948,96.186,408.081,71.776,408.184z"/>
			<rect x="69.619" y="436.316" style="fill:#F4C85B;" width="4.581" height="7.224"/>
			<rect x="93.493" y="436.316" style="fill:#F4C85B;" width="4.581" height="7.224"/>
			<path style="fill:none;stroke:#4C4C72;stroke-width:4;stroke-linecap:round;stroke-miterlimit:10;" d="M94.33,399.843h28.016
				c3.601,0,6.519,2.919,6.519,6.519v13.832"/>
			<path style="fill:#3E3D5E;" d="M110.475,403.279H84.97c-1.861,0-3.37-1.509-3.37-3.37l0,0c0-1.861,1.509-3.37,3.37-3.37h25.505
				c1.861,0,3.37,1.509,3.37,3.37l0,0C113.844,401.77,112.336,403.279,110.475,403.279z"/>
		</g>
		<g>
			<g>
				<g>
					<rect x="357.731" y="430.169" style="fill:#FF7752;" width="57.709" height="18.683"/>
					<rect x="357.731" y="430.169" style="fill:#FF5050;" width="13.77" height="18.683"/>
				</g>
				<path style="fill:#FFE7B3;" d="M374.96,430.168h-15.984c-0.688,0-1.246-0.558-1.246-1.245l0,0c0-0.688,0.558-1.246,1.246-1.246
					h15.984h39.234c0.688,0,1.246,0.558,1.246,1.246l0,0c0,0.688-0.558,1.245-1.246,1.245H374.96z"/>
			</g>
			<g>
				<g>
					<rect x="311.75" y="430.169" style="fill:#FF7752;" width="57.709" height="18.683"/>
					<rect x="311.75" y="430.169" style="fill:#FF5050;" width="13.77" height="18.683"/>
				</g>
				<path style="fill:#FFE7B3;" d="M328.98,430.168h-15.984c-0.688,0-1.246-0.558-1.246-1.245l0,0c0-0.688,0.558-1.246,1.246-1.246
					h15.984h39.234c0.688,0,1.245,0.558,1.245,1.246l0,0c0,0.688-0.558,1.245-1.245,1.245H328.98z"/>
			</g>
			<g>
				<g>
					<rect x="265.682" y="430.169" style="fill:#FF7752;" width="57.709" height="18.683"/>
					<rect x="265.682" y="430.169" style="fill:#FF5050;" width="13.77" height="18.683"/>
				</g>
				<path style="fill:#FFE7B3;" d="M282.912,430.168h-15.984c-0.688,0-1.246-0.558-1.246-1.245l0,0c0-0.688,0.558-1.246,1.246-1.246
					h15.984h39.234c0.688,0,1.246,0.558,1.246,1.246l0,0c0,0.688-0.558,1.245-1.246,1.245H282.912z"/>
			</g>
			<g>
				<g>
					<rect x="219.702" y="430.169" style="fill:#FF7752;" width="57.71" height="18.683"/>
					<rect x="219.702" y="430.169" style="fill:#FF5050;" width="13.77" height="18.683"/>
				</g>
				<path style="fill:#FFE7B3;" d="M236.932,430.168h-15.984c-0.688,0-1.245-0.558-1.245-1.245l0,0c0-0.688,0.558-1.246,1.245-1.246
					h15.984h39.234c0.688,0,1.245,0.558,1.245,1.246l0,0c0,0.688-0.558,1.245-1.245,1.245H236.932z"/>
			</g>
			<g>
				<g>
					<rect x="357.731" y="388.028" style="fill:#FF7752;" width="57.709" height="18.683"/>
					<rect x="357.731" y="388.028" style="fill:#FF5050;" width="13.77" height="18.683"/>
				</g>
				<path style="fill:#FFE7B3;" d="M374.96,388.028h-15.984c-0.688,0-1.246-0.558-1.246-1.245l0,0c0-0.688,0.558-1.246,1.246-1.246
					h15.984h39.234c0.688,0,1.246,0.558,1.246,1.246l0,0c0,0.688-0.558,1.245-1.246,1.245H374.96z"/>
			</g>
			<g>
				<g>
					<rect x="311.75" y="388.028" style="fill:#FF7752;" width="57.709" height="18.683"/>
					<rect x="311.75" y="388.028" style="fill:#FF5050;" width="13.77" height="18.683"/>
				</g>
				<path style="fill:#FFE7B3;" d="M328.98,388.028h-15.984c-0.688,0-1.246-0.558-1.246-1.245l0,0c0-0.688,0.558-1.246,1.246-1.246
					h15.984h39.234c0.688,0,1.245,0.558,1.245,1.246l0,0c0,0.688-0.558,1.245-1.245,1.245H328.98z"/>
			</g>
			<g>
				<g>
					<rect x="265.682" y="388.028" style="fill:#FF7752;" width="57.709" height="18.683"/>
					<rect x="265.682" y="388.028" style="fill:#FF5050;" width="13.77" height="18.683"/>
				</g>
				<path style="fill:#FFE7B3;" d="M282.912,388.028h-15.984c-0.688,0-1.246-0.558-1.246-1.245l0,0c0-0.688,0.558-1.246,1.246-1.246
					h15.984h39.234c0.688,0,1.246,0.558,1.246,1.246l0,0c0,0.688-0.558,1.245-1.246,1.245H282.912z"/>
			</g>
			<g>
				<g>
					<rect x="219.702" y="388.028" style="fill:#FF7752;" width="57.71" height="18.683"/>
					<rect x="219.702" y="388.028" style="fill:#FF5050;" width="13.77" height="18.683"/>
				</g>
				<path style="fill:#FFE7B3;" d="M236.932,388.028h-15.984c-0.688,0-1.245-0.558-1.245-1.245l0,0c0-0.688,0.558-1.246,1.245-1.246
					h15.984h39.234c0.688,0,1.245,0.558,1.245,1.246l0,0c0,0.688-0.558,1.245-1.245,1.245H236.932z"/>
			</g>
			<g>
				<g>
					<rect x="339.151" y="409.098" style="fill:#FF7752;" width="57.71" height="18.683"/>
					<rect x="339.151" y="409.098" style="fill:#FF5050;" width="13.77" height="18.683"/>
				</g>
				<path style="fill:#FFE7B3;" d="M356.381,409.098h-15.984c-0.688,0-1.246-0.558-1.246-1.246l0,0c0-0.688,0.558-1.245,1.246-1.245
					h15.984h39.234c0.688,0,1.246,0.558,1.246,1.245l0,0c0,0.688-0.558,1.246-1.246,1.246H356.381z"/>
			</g>
			<g>
				<g>
					<rect x="293.084" y="409.098" style="fill:#FF7752;" width="57.709" height="18.683"/>
					<rect x="293.084" y="409.098" style="fill:#FF5050;" width="13.77" height="18.683"/>
				</g>
				<path style="fill:#FFE7B3;" d="M310.314,409.098H294.33c-0.688,0-1.246-0.558-1.246-1.246l0,0c0-0.688,0.558-1.245,1.246-1.245
					h15.984h39.234c0.688,0,1.246,0.558,1.246,1.245l0,0c0,0.688-0.558,1.246-1.246,1.246H310.314z"/>
			</g>
			<g>
				<g>
					<rect x="247.103" y="409.098" style="fill:#FF7752;" width="57.709" height="18.683"/>
					<rect x="247.103" y="409.098" style="fill:#FF5050;" width="13.77" height="18.683"/>
				</g>
				<path style="fill:#FFE7B3;" d="M264.333,409.098h-15.984c-0.688,0-1.246-0.558-1.246-1.246l0,0c0-0.688,0.558-1.245,1.246-1.245
					h15.984h39.234c0.688,0,1.246,0.558,1.246,1.245l0,0c0,0.688-0.558,1.246-1.246,1.246H264.333z"/>
			</g>
			<g>
				<g>
					<rect x="293.084" y="366.889" style="fill:#FF7752;" width="57.709" height="18.683"/>
					<rect x="293.084" y="366.889" style="fill:#FF5050;" width="13.77" height="18.683"/>
				</g>
				<path style="fill:#FFE7B3;" d="M310.314,366.889H294.33c-0.688,0-1.246-0.558-1.246-1.246l0,0c0-0.688,0.558-1.246,1.246-1.246
					h15.984h39.234c0.688,0,1.246,0.558,1.246,1.246l0,0c0,0.688-0.558,1.246-1.246,1.246H310.314z"/>
			</g>
			<g>
				<g>
					<rect x="247.103" y="366.889" style="fill:#FF7752;" width="57.709" height="18.683"/>
					<rect x="247.103" y="366.889" style="fill:#FF5050;" width="13.77" height="18.683"/>
				</g>
				<path style="fill:#FFE7B3;" d="M264.333,366.889h-15.984c-0.688,0-1.246-0.558-1.246-1.246l0,0c0-0.688,0.558-1.246,1.246-1.246
					h15.984h39.234c0.688,0,1.246,0.558,1.246,1.246l0,0c0,0.688-0.558,1.246-1.246,1.246H264.333z"/>
			</g>
		</g>
		<g>
			<g>
				<path style="fill:#606093;" d="M222.448,129.615h-15.5c-1.395,0-2.526-1.131-2.526-2.526l0,0c0-1.395,1.131-2.526,2.526-2.526
					h15.5c1.395,0,2.526,1.131,2.526,2.526l0,0C224.974,128.485,223.843,129.615,222.448,129.615z"/>
				<path style="fill:#7979AA;" d="M221.514,134.701h-13.632c-1.395,0-2.526-1.131-2.526-2.526l0,0c0-1.395,1.131-2.526,2.526-2.526
					h13.632c1.395,0,2.526,1.131,2.526,2.526l0,0C224.04,133.571,222.909,134.701,221.514,134.701z"/>
				<path style="fill:#606093;" d="M220.58,139.787h-11.763c-1.395,0-2.526-1.131-2.526-2.526l0,0c0-1.395,1.131-2.526,2.526-2.526
					h11.763c1.395,0,2.526,1.131,2.526,2.526l0,0C223.105,138.656,221.975,139.787,220.58,139.787z"/>
				
					<ellipse transform="matrix(0.9265 -0.3764 0.3764 0.9265 -18.8422 87.5813)" style="fill:#FFD576;" cx="214.698" cy="92.007" rx="25.187" ry="25.187"/>
				<path style="fill:#FFD576;" d="M219.324,124.945h-9.252c-2.898,0-5.248-2.35-5.248-5.248V93.115h19.749v26.582
					C224.572,122.595,222.223,124.945,219.324,124.945z"/>
				<g>
					<path style="fill:none;stroke:#606093;stroke-miterlimit:10;" d="M211.636,126.329V91.8c0-1.643-1.332-2.975-2.975-2.975h0
						c-1.643,0-2.975,1.332-2.975,2.975v0.969c0,1.643,1.332,2.975,2.975,2.975h7.75"/>
					<path style="fill:none;stroke:#606093;stroke-miterlimit:10;" d="M217.76,126.329V91.8c0-1.643,1.332-2.975,2.975-2.975l0,0
						c1.643,0,2.975,1.332,2.975,2.975v0.969c0,1.643-1.332,2.975-2.975,2.975h-7.75"/>
				</g>
			</g>
			<g>
				
					<line style="fill:none;stroke:#FFA543;stroke-width:4;stroke-miterlimit:10;" x1="236.135" y1="68.985" x2="245.953" y2="59.167"/>
				
					<line style="fill:none;stroke:#FFA543;stroke-width:4;stroke-miterlimit:10;" x1="232.174" y1="64.2" x2="232.174" y2="50.338"/>
				
					<line style="fill:none;stroke:#FFA543;stroke-width:4;stroke-miterlimit:10;" x1="241.113" y1="73.303" x2="254.974" y2="73.303"/>
			</g>
		</g>
	</g>
</g>
</svg>
